<svg version="1.1" id="Layer_1" xmlns="http://www.w3.org/2000/svg" xmlns:xlink="http://www.w3.org/1999/xlink" x="0px" y="0px"
	 width="100%" viewBox="0 0 1546 1331" enable-background="new 0 0 1546 1331" xml:space="preserve">
<path fill="#000000" opacity="1.000000" stroke="none" 
	d="
M908.000000,1.000000 
	C1120.955322,1.000000 1333.910767,1.000000 1547.000000,1.000000 
	C1547.000000,442.696045 1547.000000,884.392090 1546.687012,1326.834961 
	C1545.264648,1325.820923 1543.889648,1324.172363 1543.090576,1322.280396 
	C1538.978516,1312.544434 1535.109619,1302.705444 1530.974243,1292.979736 
	C1525.768555,1280.736938 1520.339722,1268.588989 1515.092407,1256.363647 
	C1507.383423,1238.402588 1499.770874,1220.400391 1492.077271,1202.432861 
	C1486.777954,1190.056885 1481.334106,1177.742676 1476.093262,1165.342285 
	C1468.986328,1148.526245 1462.124268,1131.606445 1454.949951,1114.819702 
	C1447.452393,1097.276978 1439.647461,1079.865723 1432.090332,1062.348145 
	C1424.347778,1044.400635 1416.764648,1026.384399 1409.070068,1008.416138 
	C1403.770508,996.040283 1398.349609,983.716370 1393.073364,971.330627 
	C1385.728149,954.088074 1378.512329,936.790344 1371.156982,919.552185 
	C1364.866943,904.810852 1358.425171,890.134460 1352.111328,875.403259 
	C1344.411743,857.438660 1336.775635,839.447021 1329.112793,821.466675 
	C1323.081787,807.315063 1317.046875,793.165222 1311.022949,779.010559 
	C1303.494873,761.321106 1295.998901,743.617920 1288.446289,725.938965 
	C1282.338745,711.642334 1276.134399,697.386963 1270.033691,683.087402 
	C1262.490112,665.406311 1255.051147,647.680603 1247.488770,630.007629 
	C1241.057129,614.977051 1234.472168,600.012146 1228.031616,584.985352 
	C1220.458252,567.315063 1212.987793,549.600586 1205.434692,531.921570 
	C1199.327148,517.626038 1193.132690,503.367615 1187.032104,489.069183 
	C1179.488037,471.387390 1172.040527,453.664459 1164.477661,435.990784 
	C1158.045898,420.960571 1151.450928,406.000214 1145.035400,390.963165 
	C1137.806274,374.019012 1130.755615,356.998749 1123.519531,340.057678 
	C1117.097412,325.022247 1110.457153,310.079956 1104.041992,295.041595 
	C1096.814087,278.098145 1089.798218,261.064209 1082.563232,244.123825 
	C1076.141235,229.087173 1069.482788,214.151642 1063.042969,199.122482 
	C1055.471924,181.453171 1048.070923,163.711090 1040.509033,146.037796 
	C1034.077759,131.007034 1027.450439,116.060036 1021.040833,101.020119 
	C1012.951721,82.039070 1004.995544,63.001347 996.779358,43.507137 
	C995.905823,44.758759 995.313538,45.357769 995.011658,46.078426 
	C991.612366,54.193764 988.316956,62.352947 984.878235,70.451363 
	C978.300537,85.942421 971.536926,101.355347 965.053040,116.885307 
	C955.612854,139.496109 946.421326,162.210709 936.994080,184.826965 
	C928.116089,206.125366 918.977051,227.315018 910.121704,248.622726 
	C899.119446,275.096466 888.378662,301.678955 877.361755,328.146515 
	C866.772827,353.585876 855.926880,378.918152 845.283325,404.334961 
	C834.331909,430.486755 823.422852,456.656860 812.674377,482.892334 
	C811.190674,486.513763 808.291504,490.056152 810.135071,494.471405 
	C815.073303,506.298279 820.047485,518.110046 824.993042,529.933838 
	C832.660217,548.264526 840.374695,566.575623 847.959717,584.940186 
	C856.028015,604.474548 863.917053,624.082825 871.980469,643.619202 
	C879.561279,661.986694 887.348877,680.268921 894.896912,698.649719 
	C903.595947,719.833252 912.039734,741.121765 920.763428,762.294983 
	C930.712036,786.440857 940.926025,810.477356 950.877808,834.621887 
	C960.031738,856.830872 968.902405,879.156799 978.065002,901.362244 
	C984.848999,917.802856 992.030151,934.079712 998.801147,950.525513 
	C1007.273804,971.104675 1015.406982,991.823547 1023.873108,1012.405396 
	C1032.406128,1033.149902 1041.251953,1053.765503 1049.806152,1074.501465 
	C1059.517456,1098.042480 1068.992065,1121.681274 1078.688477,1145.228394 
	C1089.971802,1172.628906 1101.430542,1199.957153 1112.727539,1227.351929 
	C1124.328979,1255.485596 1135.861572,1283.647949 1147.345703,1311.829590 
	C1150.058716,1318.487183 1152.456909,1325.273071 1155.000000,1332.000000 
	C892.637329,1332.000000 630.274597,1332.000000 367.456421,1331.609009 
	C367.008575,1330.884277 366.919586,1330.511108 367.037689,1330.222534 
	C376.349030,1307.471558 385.669403,1284.724121 395.004852,1261.983032 
	C405.632324,1236.094482 416.343536,1210.240234 426.891449,1184.319336 
	C438.350311,1156.159912 449.649200,1127.935669 461.044617,1099.750366 
	C468.682129,1080.859863 476.352722,1061.982666 484.032562,1043.109375 
	C494.334259,1017.792725 504.635132,992.475708 514.981995,967.177490 
	C522.943298,947.711975 531.026428,928.296143 538.962769,908.820496 
	C549.336365,883.363708 559.577576,857.853027 569.952881,832.396912 
	C578.562683,811.272705 587.336792,790.215332 595.940857,769.088745 
	C604.357056,748.423767 612.584778,727.681885 621.014587,707.022461 
	C630.915283,682.758484 641.013977,658.575256 650.897034,634.304199 
	C659.373291,613.487793 667.639160,592.585815 676.049438,571.742371 
	C683.673645,552.846680 691.357239,533.974915 699.033203,515.100159 
	C705.003967,500.418304 711.000793,485.747040 716.990662,471.072937 
	C724.998291,451.455872 733.033752,431.850159 741.013489,412.221802 
	C748.383057,394.094177 755.653076,375.926025 763.044189,357.807190 
	C770.314636,339.984283 777.721191,322.216980 784.995544,304.395660 
	C791.717896,287.926483 798.301636,271.400726 805.023987,254.931473 
	C812.970398,235.463287 821.042847,216.046509 828.981079,196.574982 
	C836.367554,178.456955 843.619690,160.284210 850.985474,142.157684 
	C858.962219,122.527466 866.998840,102.921577 875.014954,83.307373 
	C882.664001,64.591110 890.357300,45.892845 897.955994,27.156208 
	C901.343384,18.803848 904.546570,10.376829 907.906372,1.743076 
	C907.986267,1.334973 907.993103,1.167487 908.000000,1.000000 
z"/>
<path fill="#FFB71B" opacity="1.000000" stroke="none" 
	d="
M907.833374,1.983692 
	C904.546570,10.376829 901.343384,18.803848 897.955994,27.156208 
	C890.357300,45.892845 882.664001,64.591110 875.014954,83.307373 
	C866.998840,102.921577 858.962219,122.527466 850.985474,142.157684 
	C843.619690,160.284210 836.367554,178.456955 828.981079,196.574982 
	C821.042847,216.046509 812.970398,235.463287 805.023987,254.931473 
	C798.301636,271.400726 791.717896,287.926483 784.995544,304.395660 
	C777.721191,322.216980 770.314636,339.984283 763.044189,357.807190 
	C755.653076,375.926025 748.383057,394.094177 741.013489,412.221802 
	C733.033752,431.850159 724.998291,451.455872 716.990662,471.072937 
	C711.000793,485.747040 705.003967,500.418304 699.033203,515.100159 
	C691.357239,533.974915 683.673645,552.846680 676.049438,571.742371 
	C667.639160,592.585815 659.373291,613.487793 650.897034,634.304199 
	C641.013977,658.575256 630.915283,682.758484 621.014587,707.022461 
	C612.584778,727.681885 604.357056,748.423767 595.940857,769.088745 
	C587.336792,790.215332 578.562683,811.272705 569.952881,832.396912 
	C559.577576,857.853027 549.336365,883.363708 538.962769,908.820496 
	C531.026428,928.296143 522.943298,947.711975 514.981995,967.177490 
	C504.635132,992.475708 494.334259,1017.792725 484.032562,1043.109375 
	C476.352722,1061.982666 468.682129,1080.859863 461.044617,1099.750366 
	C449.649200,1127.935669 438.350311,1156.159912 426.891449,1184.319336 
	C416.343536,1210.240234 405.632324,1236.094482 395.004852,1261.983032 
	C385.669403,1284.724121 376.349030,1307.471558 367.037689,1330.222534 
	C366.919586,1330.511108 367.008575,1330.884277 367.000488,1331.609009 
	C245.000000,1332.000000 123.000000,1332.000000 1.000000,1331.993896 
	C1.000000,1329.990479 1.000000,1327.993164 1.330228,1325.786865 
	C3.251871,1322.752808 5.154932,1320.056763 6.385801,1317.082520 
	C16.961765,1291.527588 27.473305,1265.945679 37.889797,1240.325317 
	C46.901409,1218.160278 55.667053,1195.895386 64.718063,1173.746704 
	C74.997391,1148.592163 85.573250,1123.558960 95.837257,1098.398315 
	C108.051201,1068.457764 120.003807,1038.410522 132.196152,1008.461121 
	C141.343781,985.990723 150.771255,963.634399 159.927979,941.167664 
	C169.629715,917.363831 179.068344,893.452637 188.787933,869.656189 
	C199.063324,844.498901 209.634369,819.462280 219.894272,794.298767 
	C232.041992,764.505127 243.926163,734.604065 256.056122,704.803162 
	C264.531677,683.980347 273.318909,663.284485 281.801178,642.464355 
	C291.012482,619.854797 299.944641,597.131470 309.159546,574.523315 
	C318.317047,552.056152 327.755280,529.703430 336.921722,507.239868 
	C345.961334,485.087250 354.728607,462.823517 363.771149,440.672150 
	C375.385620,412.220459 387.218323,383.857849 398.839783,355.408966 
	C408.989960,330.561890 418.907623,305.619812 429.062744,280.774780 
	C435.550507,264.902191 442.397827,249.176468 448.872345,233.298599 
	C454.730225,218.932999 460.215393,204.415756 466.019409,190.027725 
	C473.944000,170.382858 482.017578,150.798126 490.022522,131.185654 
	C496.010773,116.514198 501.984344,101.836746 507.977264,87.167213 
	C515.316711,69.201515 522.634949,51.227089 530.029419,33.284077 
	C534.340698,22.822672 538.783203,12.415351 543.355591,1.867056 
	C543.773254,1.546957 543.925110,1.296818 544.000000,1.000000 
	C664.687561,1.000000 785.375122,1.000000 906.616394,1.205180 
	C907.329529,1.672734 907.550659,1.863845 907.833374,1.983692 
z"/>
<path fill="#FFFFFF" opacity="1.000000" stroke="none" 
	d="
M1155.468628,1332.000000 
	C1152.456909,1325.273071 1150.058716,1318.487183 1147.345703,1311.829590 
	C1135.861572,1283.647949 1124.328979,1255.485596 1112.727539,1227.351929 
	C1101.430542,1199.957153 1089.971802,1172.628906 1078.688477,1145.228394 
	C1068.992065,1121.681274 1059.517456,1098.042480 1049.806152,1074.501465 
	C1041.251953,1053.765503 1032.406128,1033.149902 1023.873108,1012.405396 
	C1015.406982,991.823547 1007.273804,971.104675 998.801147,950.525513 
	C992.030151,934.079712 984.848999,917.802856 978.065002,901.362244 
	C968.902405,879.156799 960.031738,856.830872 950.877808,834.621887 
	C940.926025,810.477356 930.712036,786.440857 920.763428,762.294983 
	C912.039734,741.121765 903.595947,719.833252 894.896912,698.649719 
	C887.348877,680.268921 879.561279,661.986694 871.980469,643.619202 
	C863.917053,624.082825 856.028015,604.474548 847.959717,584.940186 
	C840.374695,566.575623 832.660217,548.264526 824.993042,529.933838 
	C820.047485,518.110046 815.073303,506.298279 810.135071,494.471405 
	C808.291504,490.056152 811.190674,486.513763 812.674377,482.892334 
	C823.422852,456.656860 834.331909,430.486755 845.283325,404.334961 
	C855.926880,378.918152 866.772827,353.585876 877.361755,328.146515 
	C888.378662,301.678955 899.119446,275.096466 910.121704,248.622726 
	C918.977051,227.315018 928.116089,206.125366 936.994080,184.826965 
	C946.421326,162.210709 955.612854,139.496109 965.053040,116.885307 
	C971.536926,101.355347 978.300537,85.942421 984.878235,70.451363 
	C988.316956,62.352947 991.612366,54.193764 995.011658,46.078426 
	C995.313538,45.357769 995.905823,44.758759 996.779358,43.507137 
	C1004.995544,63.001347 1012.951721,82.039070 1021.040833,101.020119 
	C1027.450439,116.060036 1034.077759,131.007034 1040.509033,146.037796 
	C1048.070923,163.711090 1055.471924,181.453171 1063.042969,199.122482 
	C1069.482788,214.151642 1076.141235,229.087173 1082.563232,244.123825 
	C1089.798218,261.064209 1096.814087,278.098145 1104.041992,295.041595 
	C1110.457153,310.079956 1117.097412,325.022247 1123.519531,340.057678 
	C1130.755615,356.998749 1137.806274,374.019012 1145.035400,390.963165 
	C1151.450928,406.000214 1158.045898,420.960571 1164.477661,435.990784 
	C1172.040527,453.664459 1179.488037,471.387390 1187.032104,489.069183 
	C1193.132690,503.367615 1199.327148,517.626038 1205.434692,531.921570 
	C1212.987793,549.600586 1220.458252,567.315063 1228.031616,584.985352 
	C1234.472168,600.012146 1241.057129,614.977051 1247.488770,630.007629 
	C1255.051147,647.680603 1262.490112,665.406311 1270.033691,683.087402 
	C1276.134399,697.386963 1282.338745,711.642334 1288.446289,725.938965 
	C1295.998901,743.617920 1303.494873,761.321106 1311.022949,779.010559 
	C1317.046875,793.165222 1323.081787,807.315063 1329.112793,821.466675 
	C1336.775635,839.447021 1344.411743,857.438660 1352.111328,875.403259 
	C1358.425171,890.134460 1364.866943,904.810852 1371.156982,919.552185 
	C1378.512329,936.790344 1385.728149,954.088074 1393.073364,971.330627 
	C1398.349609,983.716370 1403.770508,996.040283 1409.070068,1008.416138 
	C1416.764648,1026.384399 1424.347778,1044.400635 1432.090332,1062.348145 
	C1439.647461,1079.865723 1447.452393,1097.276978 1454.949951,1114.819702 
	C1462.124268,1131.606445 1468.986328,1148.526245 1476.093262,1165.342285 
	C1481.334106,1177.742676 1486.777954,1190.056885 1492.077271,1202.432861 
	C1499.770874,1220.400391 1507.383423,1238.402588 1515.092407,1256.363647 
	C1520.339722,1268.588989 1525.768555,1280.736938 1530.974243,1292.979736 
	C1535.109619,1302.705444 1538.978516,1312.544434 1543.090576,1322.280396 
	C1543.889648,1324.172363 1545.264648,1325.820923 1546.687012,1327.290894 
	C1547.000000,1328.664795 1547.000000,1330.329712 1547.000000,1331.997314 
	C1416.645752,1332.000000 1286.291504,1332.000000 1155.468628,1332.000000 
z"/>
<path fill="#000000" opacity="1.000000" stroke="none" 
	d="
M543.166626,1.983694 
	C538.783203,12.415351 534.340698,22.822672 530.029419,33.284077 
	C522.634949,51.227089 515.316711,69.201515 507.977264,87.167213 
	C501.984344,101.836746 496.010773,116.514198 490.022522,131.185654 
	C482.017578,150.798126 473.944000,170.382858 466.019409,190.027725 
	C460.215393,204.415756 454.730225,218.932999 448.872345,233.298599 
	C442.397827,249.176468 435.550507,264.902191 429.062744,280.774780 
	C418.907623,305.619812 408.989960,330.561890 398.839783,355.408966 
	C387.218323,383.857849 375.385620,412.220459 363.771149,440.672150 
	C354.728607,462.823517 345.961334,485.087250 336.921722,507.239868 
	C327.755280,529.703430 318.317047,552.056152 309.159546,574.523315 
	C299.944641,597.131470 291.012482,619.854797 281.801178,642.464355 
	C273.318909,663.284485 264.531677,683.980347 256.056122,704.803162 
	C243.926163,734.604065 232.041992,764.505127 219.894272,794.298767 
	C209.634369,819.462280 199.063324,844.498901 188.787933,869.656189 
	C179.068344,893.452637 169.629715,917.363831 159.927979,941.167664 
	C150.771255,963.634399 141.343781,985.990723 132.196152,1008.461121 
	C120.003807,1038.410522 108.051201,1068.457764 95.837257,1098.398315 
	C85.573250,1123.558960 74.997391,1148.592163 64.718063,1173.746704 
	C55.667053,1195.895386 46.901409,1218.160278 37.889797,1240.325317 
	C27.473305,1265.945679 16.961765,1291.527588 6.385801,1317.082520 
	C5.154932,1320.056763 3.251871,1322.752808 1.330228,1325.288818 
	C1.000000,883.770081 1.000000,442.540192 1.000000,1.000000 
	C181.354111,1.000000 361.708405,1.000000 542.541626,1.251230 
	C543.069275,1.662871 543.117981,1.823282 543.166626,1.983694 
z"/>
<path fill="#FFB71B" opacity="1.000000" stroke="none" 
	d="
M543.355591,1.867055 
	C543.117981,1.823282 543.069275,1.662871 543.010315,1.251230 
	C543.000000,1.000000 543.500000,1.000000 543.750000,1.000000 
	C543.925110,1.296818 543.773254,1.546957 543.355591,1.867055 
z"/>
<path fill="#FFB71B" opacity="1.000000" stroke="none" 
	d="
M907.906372,1.743076 
	C907.550659,1.863845 907.329529,1.672734 907.085083,1.205180 
	C907.000000,1.000000 907.500000,1.000000 907.750000,1.000000 
	C907.993103,1.167487 907.986267,1.334973 907.906372,1.743076 
z"/>
</svg>