<svg version="1.1" id="Layer_1" xmlns="http://www.w3.org/2000/svg" xmlns:xlink="http://www.w3.org/1999/xlink" x="0px" y="0px"
	 width="100%" viewBox="0 0 387 537" enable-background="new 0 0 387 537" xml:space="preserve">
<path fill="#91140B" opacity="1.000000" stroke="none" 
	d="
M388.000000,70.000000 
	C388.000000,186.355347 388.000000,302.710693 387.531342,419.530334 
	C372.730011,420.046509 358.397308,420.098450 343.949463,420.069733 
	C343.834259,419.989105 343.567566,419.899872 343.554626,419.720093 
	C343.395172,419.346222 343.234680,419.164459 342.742249,418.715881 
	C340.448792,418.293640 338.473358,418.026062 336.497833,418.025360 
	C260.447357,417.998169 184.396866,418.002716 108.346390,417.984589 
	C87.545807,417.979645 66.745232,417.916290 45.836975,417.697876 
	C45.544235,417.292542 45.316883,417.127258 45.027611,416.550537 
	C44.984386,319.827515 44.965633,223.574036 44.905384,127.320602 
	C44.904064,125.212189 44.428429,123.104080 44.121243,120.709457 
	C44.004692,120.040199 43.940948,119.657310 43.821655,118.844330 
	C43.540508,117.624519 43.119919,116.835236 43.118206,116.045044 
	C43.086449,101.394707 43.097244,86.744247 43.138584,72.093925 
	C43.140282,71.492615 43.527756,70.892380 43.836353,70.000000 
	C158.613098,70.000000 273.306549,70.000000 388.000000,70.000000 
M127.421356,301.143463 
	C127.624573,301.433624 127.827789,301.723816 128.241501,302.149414 
	C128.241501,302.149414 128.160919,302.386414 128.151550,303.137177 
	C128.569122,303.690125 128.986710,304.243042 129.275238,304.821991 
	C129.275238,304.821991 129.306259,304.694061 129.155640,305.472382 
	C130.293213,307.449249 131.430771,309.426086 132.652084,311.510559 
	C132.652084,311.510559 132.676086,311.644745 132.411499,312.273041 
	C132.776276,312.725128 133.141052,313.177246 133.237091,314.029541 
	C133.237091,314.029541 133.491562,313.626434 133.309357,314.289215 
	C133.677536,314.776215 134.045700,315.263214 134.310608,315.786011 
	C134.310608,315.786011 134.340210,315.680786 134.234695,316.345825 
	C134.604095,316.835968 134.973480,317.326080 135.230667,317.841827 
	C135.230667,317.841827 135.253632,317.729065 135.190506,318.386017 
	C135.545029,318.885529 135.899551,319.385071 136.147583,319.892120 
	C136.147583,319.892120 136.172302,319.788239 136.148712,320.432831 
	C136.495499,320.929596 136.842285,321.426331 137.098358,321.918121 
	C137.098358,321.918121 137.125595,321.831482 137.077408,322.557922 
	C137.570038,323.214905 138.062683,323.871918 138.551834,324.591400 
	C138.551834,324.591400 138.598465,324.633148 138.363678,325.278107 
	C138.718704,325.764984 139.073730,326.251831 139.322662,326.778534 
	C139.322662,326.778534 139.357620,326.670746 139.178787,327.410889 
	C139.845459,328.580353 140.512131,329.749847 141.094589,330.919312 
	C141.094589,330.919312 141.116364,330.837952 141.118668,331.468872 
	C141.448914,331.968414 141.779160,332.467926 142.033615,332.967102 
	C142.033615,332.967102 142.064911,332.898071 142.031662,333.687439 
	C143.401932,336.438416 144.772186,339.189362 146.063950,341.926208 
	C146.063950,341.926208 146.098862,341.854462 146.108734,342.475983 
	C146.418594,342.980072 146.728455,343.484192 146.991592,343.984802 
	C146.991592,343.984802 147.025116,343.952057 147.076752,344.551178 
	C147.383514,345.041412 147.690262,345.531616 148.218185,346.184357 
	C148.218185,346.184357 148.151855,346.450653 148.091583,347.268219 
	C149.225067,349.397003 150.358536,351.525818 151.327332,353.987091 
	C151.327332,353.987091 151.454178,353.638428 151.223297,354.367371 
	C151.836334,355.584686 152.449356,356.801971 153.215408,358.128876 
	C153.215408,358.128876 153.156342,358.307556 153.295288,358.960907 
	C153.581772,359.288483 153.868256,359.616058 155.040619,359.984924 
	C164.970551,360.292450 174.900467,360.600006 185.458847,360.373383 
	C185.639725,359.076416 185.977936,357.779541 185.978745,356.482483 
	C186.006241,312.553284 186.012436,268.624084 185.957657,224.694931 
	C185.955719,223.133347 185.303970,221.572571 185.008011,220.012589 
	C185.008011,220.012589 184.975967,220.054764 184.741745,219.284668 
	C184.090805,218.870026 183.443985,218.102280 182.788300,218.094635 
	C175.039322,218.004288 167.288071,217.970245 159.540436,218.100464 
	C158.665527,218.115189 157.809021,219.224930 156.981079,219.923538 
	C156.981079,219.923538 156.881561,219.952026 156.135849,220.220535 
	C155.760284,222.086761 155.063919,223.951950 155.057922,225.819366 
	C154.983459,248.957764 155.009537,272.096466 155.009705,295.235107 
	C155.009720,296.788788 155.009705,298.342499 155.009705,300.131470 
	C153.464218,298.978210 152.471268,298.237244 151.444412,297.422363 
	C151.444412,297.422363 151.401169,297.353455 151.623245,296.719727 
	C151.266846,296.257965 150.910431,295.796234 150.943771,294.978394 
	C150.816360,295.098419 150.688965,295.218414 150.709152,294.685364 
	C150.350464,294.202850 149.991776,293.720306 149.768768,293.150879 
	C149.768768,293.150879 149.688187,293.290405 149.769196,292.636261 
	C149.402344,292.158844 149.035507,291.681427 148.771973,291.163452 
	C148.771973,291.163452 148.734970,291.268097 148.851028,290.494537 
	C147.728210,288.488373 146.605392,286.482208 145.461365,284.408325 
	C145.461365,284.408325 145.415024,284.354584 145.630676,283.718231 
	C145.274323,283.253296 144.917984,282.788361 144.897919,281.963043 
	C144.897919,281.963043 144.576279,282.334869 144.715652,281.680634 
	C144.353729,281.200714 143.991806,280.720795 143.754379,280.167969 
	C143.754379,280.167969 143.689560,280.296875 143.776001,279.561584 
	C142.886398,278.035980 141.996796,276.510345 140.897202,274.639526 
	C140.897202,274.639526 140.905441,274.235535 140.939102,273.502655 
	C140.448624,272.823334 139.958130,272.144043 139.454559,271.398865 
	C139.454559,271.398865 139.406738,271.351746 139.627472,270.717499 
	C139.276657,270.246429 138.925858,269.775330 138.828766,269.021271 
	C138.828766,269.021271 138.605087,269.328522 138.746689,268.620941 
	C138.084930,267.453644 137.423172,266.286316 136.853546,265.109375 
	C136.853546,265.109375 136.830933,265.199219 136.851578,264.563080 
	C136.516510,264.064026 136.181442,263.564972 135.929550,263.060822 
	C135.929550,263.060822 135.897675,263.137787 135.931625,262.431458 
	C135.442459,261.825378 134.953308,261.219330 134.336212,260.495514 
	C134.336212,260.495514 134.316299,260.322815 134.598251,259.605438 
	C133.354172,257.090851 132.110092,254.576294 130.950348,252.051285 
	C130.950348,252.051285 130.910004,252.126068 130.897018,251.507080 
	C130.570435,251.014145 130.243835,250.521210 129.990021,250.021042 
	C129.990021,250.021042 129.946548,250.079849 129.975250,249.294693 
	C128.615677,246.544800 127.256111,243.794907 125.976158,241.049133 
	C125.976158,241.049133 125.924263,241.109665 125.918137,240.492950 
	C125.605408,239.988312 125.292679,239.483688 124.765968,238.833786 
	C124.765968,238.833786 124.812759,238.579407 124.889427,237.758759 
	C123.748764,235.684036 122.608093,233.609329 121.405083,231.445694 
	C121.405083,231.445694 121.370796,231.342651 121.606720,230.715515 
	C121.257278,230.250305 120.907837,229.785095 120.868515,228.964828 
	C120.868515,228.964828 120.576996,229.334412 120.722649,228.679993 
	C120.375549,228.179520 120.028450,227.679031 119.780388,227.160553 
	C119.780388,227.160553 119.750450,227.256653 119.812698,226.609695 
	C119.475647,226.104141 119.138596,225.598602 118.886330,225.090622 
	C118.886330,225.090622 118.862129,225.171921 118.870834,224.542328 
	C118.542984,224.041611 118.215134,223.540878 117.965660,223.037338 
	C117.965660,223.037338 117.928017,223.106125 117.907852,222.491989 
	C117.585106,221.999954 117.262360,221.507919 116.531700,220.763504 
	C116.269218,220.558914 116.095596,220.295715 116.001801,219.455658 
	C115.993904,219.283081 115.986000,219.110504 115.340820,218.411804 
	C106.390656,218.282898 97.440445,218.102295 88.490402,218.110168 
	C87.654518,218.110901 86.819687,219.303680 85.926903,220.632385 
	C85.891174,221.089005 85.855453,221.545639 85.420273,222.408600 
	C85.261864,222.948639 85.103462,223.488663 84.421906,224.661697 
	C84.281693,225.637726 84.019341,226.613678 84.018852,227.589783 
	C83.998062,269.309204 83.991173,311.028656 84.040695,352.748047 
	C84.042366,354.157715 84.641197,355.566681 85.026985,357.538147 
	C85.296898,358.015686 85.566803,358.493195 86.008583,359.564606 
	C86.040878,359.974701 86.073174,360.384827 86.619041,361.440613 
	C94.697052,361.624634 102.774605,361.853516 110.853645,361.936005 
	C111.866058,361.946320 112.886360,361.183899 113.906097,360.392822 
	C113.970596,360.114380 114.139412,359.933075 115.174141,359.461609 
	C115.450531,357.711365 115.956474,355.962433 115.966415,354.210663 
	C116.036049,341.939789 116.003242,329.668304 116.003227,317.397034 
	C116.003212,305.030731 116.003220,292.664429 116.003220,280.149292 
	C117.964378,282.821991 119.728081,285.225586 121.175980,287.969849 
	C121.175980,287.969849 121.481812,287.630585 121.303322,288.293121 
	C121.669495,288.783112 122.035667,289.273071 122.294945,289.796875 
	C122.294945,289.796875 122.323189,289.688385 122.227905,290.353790 
	C122.605225,290.835297 122.982552,291.316833 123.248405,291.826538 
	C123.248405,291.826538 123.272926,291.714203 123.139626,292.491547 
	C124.280823,294.471100 125.422020,296.450623 126.626526,298.527130 
	C126.626526,298.527130 126.656097,298.639099 126.401505,299.272034 
	C126.770630,299.721161 127.139755,300.170319 127.274925,300.979706 
	C127.274925,300.979706 127.474243,300.599213 127.421356,301.143463 
M200.570114,361.264008 
	C211.004578,361.401489 221.438980,361.548798 231.873871,361.632355 
	C232.210648,361.635071 232.552658,360.985535 233.258636,360.060425 
	C238.291702,347.597015 243.291245,335.119843 248.404800,322.689545 
	C248.976273,321.300354 250.195099,320.177490 251.113754,318.931122 
	C252.064651,320.096832 253.349945,321.120575 253.914551,322.450287 
	C259.337372,335.221954 264.638702,348.045166 270.547150,361.471344 
	C279.962280,361.647156 289.377014,361.876770 298.792938,361.949982 
	C300.519165,361.963409 302.250366,361.341309 304.371429,360.521393 
	C303.718567,358.688293 303.225739,356.778412 302.388336,355.033905 
	C292.943451,335.358368 283.557037,315.653015 273.865875,296.098938 
	C271.980438,292.294708 271.800751,289.191498 273.585663,285.385925 
	C282.638702,266.084290 291.523529,246.703400 300.386047,227.313126 
	C301.495636,224.885406 302.124298,222.237839 302.673157,218.987350 
	C302.283875,218.699219 301.896545,218.162430 301.504974,218.159317 
	C291.512970,218.079880 281.520081,218.010330 271.528900,218.104691 
	C270.671539,218.112808 269.825073,219.273636 268.687103,220.575302 
	C263.785767,232.314346 258.938660,244.076691 253.923477,255.766876 
	C253.186127,257.485626 251.650833,258.862061 249.897797,261.169403 
	C244.242264,246.563599 239.112579,233.315872 233.757416,219.293442 
	C233.098831,218.876602 232.443222,218.101959 231.781250,218.096497 
	C221.474899,218.011414 211.167007,217.970291 200.862061,218.110321 
	C199.918610,218.123154 198.992905,219.441635 198.382416,220.754837 
	C206.204514,236.966370 214.087952,253.148712 221.818893,269.403595 
	C224.975845,276.041351 230.218658,282.874176 230.113861,289.549194 
	C230.004517,296.514282 224.684235,303.436035 221.490662,310.306366 
	C214.390762,325.580231 207.155319,340.791260 200.117828,356.093567 
	C199.551987,357.323914 200.083054,359.058777 200.570114,361.264008 
z"/>
<path fill="#009999" opacity="1.000000" stroke="none" 
	d="
M43.877205,119.274422 
	C43.940948,119.657310 44.004692,120.040199 44.026009,121.169159 
	C43.979710,219.446899 43.973293,316.978577 43.999508,414.510254 
	C43.999851,415.788879 44.414448,417.067352 44.713341,418.523743 
	C44.790993,418.701599 44.973389,419.044159 45.294197,419.310852 
	C47.590992,419.718384 49.566929,419.981598 51.542957,419.982269 
	C114.607635,420.003845 177.672318,420.011139 240.737000,419.995575 
	C275.013855,419.987122 309.290710,419.933228 343.567566,419.899872 
	C343.567566,419.899872 343.834259,419.989105 343.905060,420.523895 
	C343.975861,436.963776 343.975861,452.868896 343.975861,469.000000 
	C229.143219,469.000000 115.071609,469.000000 1.000000,469.000000 
	C1.000000,352.644653 1.000000,236.289322 1.468649,119.463402 
	C15.917267,119.086693 29.897236,119.180557 43.877205,119.274422 
z"/>
<path fill="#000000" opacity="1.000000" stroke="none" 
	d="
M1.000000,469.468658 
	C115.071609,469.000000 229.143219,469.000000 343.975861,469.000000 
	C343.975861,452.868896 343.975861,436.963776 344.020264,420.604523 
	C358.397308,420.098450 372.730011,420.046509 387.531342,419.997314 
	C388.000000,459.303345 388.000000,498.606689 388.000000,537.942749 
	C259.000000,537.942749 130.000000,537.942749 1.000000,537.942749 
	C1.000000,515.236084 1.000000,492.586700 1.000000,469.468658 
z"/>
<path fill="#000000" opacity="1.000000" stroke="none" 
	d="
M43.821655,118.844330 
	C29.897236,119.180557 15.917267,119.086693 1.468649,118.996414 
	C1.000000,79.696663 1.000000,40.393318 1.000000,1.057272 
	C130.000000,1.057272 259.000000,1.057272 388.000000,1.057272 
	C388.000000,23.763924 388.000000,46.413303 388.000000,69.531342 
	C273.306549,70.000000 158.613098,70.000000 43.836353,70.000000 
	C43.527756,70.892380 43.140282,71.492615 43.138584,72.093925 
	C43.097244,86.744247 43.086449,101.394707 43.118206,116.045044 
	C43.119919,116.835236 43.540508,117.624519 43.821655,118.844330 
z"/>
<path fill="#FEFDFD" opacity="1.000000" stroke="none" 
	d="
M114.412552,359.848846 
	C114.139412,359.933075 113.970596,360.114380 113.445251,360.623352 
	C104.024757,360.834259 95.065109,360.814606 86.105461,360.794922 
	C86.073174,360.384827 86.040878,359.974701 85.994370,358.805542 
	C85.993210,335.453247 86.037369,312.859955 86.010620,290.266754 
	C85.983673,267.511902 85.886261,244.757095 85.819733,222.002258 
	C85.855453,221.545639 85.891174,221.089005 86.422623,220.233810 
	C95.945770,219.799530 104.973183,219.763824 114.327026,219.822418 
	C115.105911,219.935776 115.558365,219.954834 116.010826,219.973877 
	C116.095596,220.295715 116.269218,220.558914 116.753120,221.200302 
	C117.292366,222.126785 117.610191,222.616455 117.928009,223.106125 
	C117.928017,223.106125 117.965660,223.037338 117.955963,223.353333 
	C118.251549,224.170181 118.556839,224.671051 118.862129,225.171921 
	C118.862129,225.171921 118.886330,225.090622 118.883385,225.403351 
	C119.170441,226.229599 119.460449,226.743118 119.750458,227.256653 
	C119.750450,227.256653 119.780388,227.160553 119.780457,227.467499 
	C120.046021,228.294434 120.311508,228.814423 120.576996,229.334412 
	C120.576996,229.334412 120.868515,228.964828 120.771225,229.412781 
	C120.906219,230.354691 121.138512,230.848679 121.370796,231.342651 
	C121.370796,231.342651 121.405083,231.445694 121.553818,231.823792 
	C122.739281,234.327744 123.776016,236.453568 124.812759,238.579407 
	C124.812759,238.579407 124.765968,238.833786 124.875351,239.213501 
	C125.297905,240.098694 125.611084,240.604187 125.924263,241.109665 
	C125.924263,241.109665 125.976158,241.049133 125.960121,241.415253 
	C127.278236,244.547516 128.612396,247.313690 129.946548,250.079849 
	C129.946548,250.079849 129.990021,250.021042 129.979767,250.336029 
	C130.283005,251.142700 130.596512,251.634384 130.910004,252.126068 
	C130.910004,252.126068 130.950348,252.051285 130.948547,252.418335 
	C132.069946,255.297867 133.193115,257.810333 134.316299,260.322815 
	C134.316299,260.322815 134.336212,260.495514 134.536346,260.825653 
	C135.123535,261.816467 135.510605,262.477112 135.897675,263.137787 
	C135.897675,263.137787 135.929550,263.060822 135.924088,263.377686 
	C136.222733,264.196075 136.526825,264.697662 136.830933,265.199219 
	C136.830933,265.199219 136.853546,265.109375 136.855621,265.449493 
	C137.440155,266.969238 138.022629,268.148895 138.605087,269.328522 
	C138.605087,269.328522 138.828766,269.021271 138.754379,269.439575 
	C138.922241,270.355865 139.164490,270.853790 139.406738,271.351746 
	C139.406738,271.351746 139.454559,271.398865 139.559998,271.738556 
	C140.078766,272.797333 140.492111,273.516449 140.905441,274.235535 
	C140.905441,274.235535 140.897202,274.639526 141.017456,275.152191 
	C141.988342,277.208862 142.838943,278.752869 143.689560,280.296875 
	C143.689560,280.296875 143.754379,280.167969 143.753479,280.495056 
	C144.027161,281.326385 144.301727,281.830627 144.576294,282.334869 
	C144.576279,282.334869 144.897919,281.963043 144.785263,282.418579 
	C144.920090,283.367584 145.167557,283.861084 145.415024,284.354584 
	C145.415024,284.354584 145.461365,284.408325 145.576385,284.777008 
	C146.705917,287.186493 147.720444,289.227295 148.734970,291.268097 
	C148.734970,291.268097 148.771973,291.163452 148.779388,291.483093 
	C149.087280,292.298645 149.387726,292.794525 149.688171,293.290405 
	C149.688187,293.290405 149.768768,293.150879 149.762329,293.484070 
	C150.024445,294.324310 150.293015,294.831390 150.561584,295.338440 
	C150.688965,295.218414 150.816360,295.098419 150.802856,295.430176 
	C150.908371,296.372467 151.154770,296.862976 151.401169,297.353455 
	C151.401169,297.353455 151.444412,297.422363 151.571030,297.804138 
	C153.020142,301.075958 154.342621,303.966064 155.665100,306.856140 
	C156.070587,306.739441 156.476074,306.622742 156.881561,306.506073 
	C156.881561,277.654724 156.881561,248.803375 156.881561,219.952026 
	C156.881561,219.952026 156.981079,219.923538 157.434418,219.856705 
	C166.917145,219.878174 175.946564,219.966461 184.975967,220.054764 
	C184.975967,220.054764 185.008011,220.012589 185.002197,220.479706 
	C184.998184,243.108643 185.022919,265.270477 184.995590,287.432251 
	C184.965408,311.924042 184.887512,336.415771 184.830399,360.907532 
	C174.900467,360.600006 164.970551,360.292450 154.514603,359.642151 
	C153.711166,358.968781 153.433762,358.638184 153.156342,358.307556 
	C153.156342,358.307556 153.215408,358.128876 153.131180,357.731934 
	C152.516022,356.102814 151.985092,354.870605 151.454178,353.638428 
	C151.454178,353.638428 151.327332,353.987091 151.314331,353.468323 
	C150.251511,350.783234 149.201675,348.616943 148.151855,346.450653 
	C148.151855,346.450653 148.218185,346.184357 148.107605,345.802368 
	C147.673050,344.930939 147.349091,344.441498 147.025116,343.952057 
	C147.025116,343.952057 146.991592,343.984802 147.008972,343.679077 
	C146.717178,342.867065 146.408020,342.360748 146.098862,341.854462 
	C146.098862,341.854462 146.063950,341.926208 146.069702,341.565399 
	C144.738586,338.435760 143.401749,335.666901 142.064911,332.898071 
	C142.064911,332.898071 142.033615,332.967102 142.034485,332.653351 
	C141.729019,331.839050 141.422684,331.338501 141.116364,330.837952 
	C141.116364,330.837952 141.094589,330.919312 141.092270,330.582031 
	C140.512512,329.053406 139.935059,327.862091 139.357620,326.670746 
	C139.357620,326.670746 139.322662,326.778534 139.314911,326.477905 
	C139.070923,325.662598 138.834686,325.147858 138.598465,324.633148 
	C138.598465,324.633148 138.551834,324.591400 138.439056,324.264893 
	C137.926041,323.236084 137.525818,322.533783 137.125595,321.831482 
	C137.125595,321.831482 137.098358,321.918121 137.105469,321.606934 
	C136.799133,320.793243 136.485718,320.290741 136.172302,319.788239 
	C136.172302,319.788239 136.147583,319.892120 136.150330,319.576874 
	C135.853256,318.750763 135.553452,318.239929 135.253632,317.729065 
	C135.253632,317.729065 135.230667,317.841827 135.220322,317.528809 
	C134.920059,316.704102 134.630142,316.192444 134.340210,315.680786 
	C134.340210,315.680786 134.310608,315.786011 134.297089,315.478821 
	C134.019577,314.656586 133.755569,314.141510 133.491562,313.626434 
	C133.491562,313.626434 133.237091,314.029541 133.313477,313.563232 
	C133.151947,312.612854 132.914017,312.128784 132.676086,311.644745 
	C132.676086,311.644745 132.652084,311.510559 132.492218,311.134155 
	C131.323669,308.736511 130.314957,306.715271 129.306259,304.694061 
	C129.306259,304.694061 129.275238,304.821991 129.246918,304.470154 
	C128.866043,303.541046 128.513489,302.963715 128.160919,302.386414 
	C128.160919,302.386414 128.241501,302.149414 128.143677,301.812134 
	C127.855301,301.182953 127.664772,300.891083 127.474243,300.599213 
	C127.474243,300.599213 127.274925,300.979706 127.325920,300.534851 
	C127.136642,299.606354 126.896370,299.122742 126.656097,298.639099 
	C126.656097,298.639099 126.626526,298.527130 126.477814,298.154053 
	C125.310371,295.758728 124.291649,293.736481 123.272926,291.714203 
	C123.272926,291.714203 123.248405,291.826538 123.234886,291.513550 
	C122.921974,290.696503 122.622574,290.192444 122.323181,289.688385 
	C122.323189,289.688385 122.294945,289.796875 122.283112,289.489471 
	C122.008125,288.664917 121.744972,288.147736 121.481812,287.630585 
	C121.481812,287.630585 121.175980,287.969849 121.237106,287.443268 
	C119.262100,282.603180 117.225967,278.289673 115.189835,273.976196 
	C114.132645,275.008850 114.127502,275.613708 114.133369,276.218445 
	C114.384766,302.118958 114.648766,328.019379 114.866310,353.920166 
	C114.882904,355.894989 114.571495,357.872559 114.412552,359.848846 
z"/>
<path fill="#FEFDFD" opacity="1.000000" stroke="none" 
	d="
M302.975769,219.692139 
	C302.124298,222.237839 301.495636,224.885406 300.386047,227.313126 
	C291.523529,246.703400 282.638702,266.084290 273.585663,285.385925 
	C271.800751,289.191498 271.980438,292.294708 273.865875,296.098938 
	C283.557037,315.653015 292.943451,335.358368 302.388336,355.033905 
	C303.225739,356.778412 303.718567,358.688293 303.711182,360.717163 
	C292.025574,360.893188 281.000183,360.873413 269.974823,360.853638 
	C264.638702,348.045166 259.337372,335.221954 253.914551,322.450287 
	C253.349945,321.120575 252.064651,320.096832 251.113739,318.931122 
	C250.195099,320.177490 248.976273,321.300354 248.404800,322.689545 
	C243.291245,335.119843 238.291702,347.597015 232.619720,360.423218 
	C221.355347,360.710419 210.729858,360.634796 200.104385,360.559174 
	C200.083054,359.058777 199.551987,357.323914 200.117828,356.093567 
	C207.155319,340.791260 214.390762,325.580231 221.490662,310.306366 
	C224.684235,303.436035 230.004517,296.514282 230.113861,289.549194 
	C230.218658,282.874176 224.975845,276.041351 221.818893,269.403595 
	C214.087952,253.148712 206.204514,236.966370 198.671768,220.335846 
	C210.635056,219.967270 222.308975,220.017700 233.982910,220.068130 
	C239.112579,233.315872 244.242264,246.563599 249.897797,261.169403 
	C251.650833,258.862061 253.186127,257.485626 253.923477,255.766876 
	C258.938660,244.076691 263.785767,232.314346 269.300232,220.214890 
	C280.934174,219.800369 291.954956,219.746262 302.975769,219.692139 
z"/>
<path fill="#20A5A7" opacity="1.000000" stroke="none" 
	d="
M343.554626,419.720093 
	C309.290710,419.933228 275.013855,419.987122 240.737000,419.995575 
	C177.672318,420.011139 114.607635,420.003845 51.542957,419.982269 
	C49.566929,419.981598 47.590992,419.718384 45.764473,419.277710 
	C144.962692,418.983551 244.011459,418.989258 343.060211,418.994995 
	C343.234680,419.164459 343.395172,419.346222 343.554626,419.720093 
z"/>
<path fill="#58332D" opacity="1.000000" stroke="none" 
	d="
M342.742249,418.715881 
	C244.011459,418.989258 144.962692,418.983551 45.443661,419.010986 
	C44.973389,419.044159 44.790993,418.701599 44.834850,418.406738 
	C44.878708,418.111877 45.119614,417.875641 45.325783,417.894684 
	C45.531956,417.913727 45.944653,417.879761 45.944653,417.879761 
	C66.745232,417.916290 87.545807,417.979645 108.346390,417.984589 
	C184.396866,418.002716 260.447357,417.998169 336.497833,418.025360 
	C338.473358,418.026062 340.448792,418.293640 342.742249,418.715881 
z"/>
<path fill="#58332D" opacity="1.000000" stroke="none" 
	d="
M44.757198,418.228882 
	C44.414448,417.067352 43.999851,415.788879 43.999508,414.510254 
	C43.973293,316.978577 43.979710,219.446899 44.078815,121.455521 
	C44.428429,123.104080 44.904064,125.212189 44.905384,127.320602 
	C44.965633,223.574036 44.984386,319.827515 45.019203,416.766541 
	C45.030418,417.452118 45.119614,417.875641 45.119614,417.875641 
	C45.119614,417.875641 44.878708,418.111877 44.757198,418.228882 
z"/>
<path fill="#891817" opacity="1.000000" stroke="none" 
	d="
M156.508698,220.086273 
	C156.881561,248.803375 156.881561,277.654724 156.881561,306.506073 
	C156.476074,306.622742 156.070587,306.739441 155.665100,306.856140 
	C154.342621,303.966064 153.020142,301.075958 151.587982,297.841064 
	C152.471268,298.237244 153.464218,298.978210 155.009705,300.131470 
	C155.009705,298.342499 155.009720,296.788788 155.009705,295.235107 
	C155.009537,272.096466 154.983459,248.957764 155.057922,225.819366 
	C155.063919,223.951950 155.760284,222.086761 156.508698,220.086273 
z"/>
<path fill="#740000" opacity="1.000000" stroke="none" 
	d="
M185.144623,360.640442 
	C184.887512,336.415771 184.965408,311.924042 184.995590,287.432251 
	C185.022919,265.270477 184.998184,243.108643 184.975739,220.479126 
	C185.303970,221.572571 185.955719,223.133347 185.957657,224.694931 
	C186.012436,268.624084 186.006241,312.553284 185.978745,356.482483 
	C185.977936,357.779541 185.639725,359.076416 185.144623,360.640442 
z"/>
<path fill="#630000" opacity="1.000000" stroke="none" 
	d="
M85.619995,222.205429 
	C85.886261,244.757095 85.983673,267.511902 86.010620,290.266754 
	C86.037369,312.859955 85.993210,335.453247 85.908432,358.508606 
	C85.566803,358.493195 85.296898,358.015686 85.007980,356.791565 
	C84.974335,312.039551 84.959694,268.034119 84.945061,224.028702 
	C85.103462,223.488663 85.261864,222.948639 85.619995,222.205429 
z"/>
<path fill="#8C1B14" opacity="1.000000" stroke="none" 
	d="
M84.683487,224.345200 
	C84.959694,268.034119 84.974335,312.039551 84.975327,356.510437 
	C84.641197,355.566681 84.042366,354.157715 84.040695,352.748047 
	C83.991173,311.028656 83.998062,269.309204 84.018852,227.589783 
	C84.019341,226.613678 84.281693,225.637726 84.683487,224.345200 
z"/>
<path fill="#841010" opacity="1.000000" stroke="none" 
	d="
M114.793350,359.655212 
	C114.571495,357.872559 114.882904,355.894989 114.866310,353.920166 
	C114.648766,328.019379 114.384766,302.118958 114.133369,276.218445 
	C114.127502,275.613708 114.132645,275.008850 115.189835,273.976196 
	C117.225967,278.289673 119.262100,282.603180 121.395012,287.272949 
	C119.728081,285.225586 117.964378,282.821991 116.003220,280.149292 
	C116.003220,292.664429 116.003212,305.030731 116.003227,317.397034 
	C116.003242,329.668304 116.036049,341.939789 115.966415,354.210663 
	C115.956474,355.962433 115.450531,357.711365 114.793350,359.655212 
z"/>
<path fill="#810000" opacity="1.000000" stroke="none" 
	d="
M233.870163,219.680786 
	C222.308975,220.017700 210.635056,219.967270 198.510040,220.035324 
	C198.992905,219.441635 199.918610,218.123154 200.862061,218.110321 
	C211.167007,217.970291 221.474899,218.011414 231.781250,218.096497 
	C232.443222,218.101959 233.098831,218.876602 233.870163,219.680786 
z"/>
<path fill="#820000" opacity="1.000000" stroke="none" 
	d="
M302.824463,219.339752 
	C291.954956,219.746262 280.934174,219.800369 269.443451,219.876740 
	C269.825073,219.273636 270.671539,218.112808 271.528900,218.104691 
	C281.520081,218.010330 291.512970,218.079880 301.504974,218.159317 
	C301.896545,218.162430 302.283875,218.699219 302.824463,219.339752 
z"/>
<path fill="#820000" opacity="1.000000" stroke="none" 
	d="
M114.000603,219.728119 
	C104.973183,219.763824 95.945770,219.799530 86.451355,219.889114 
	C86.819687,219.303680 87.654518,218.110901 88.490402,218.110168 
	C97.440445,218.102295 106.390656,218.282898 115.383911,218.697708 
	C114.951530,219.231781 114.476067,219.479950 114.000603,219.728119 
z"/>
<path fill="#800000" opacity="1.000000" stroke="none" 
	d="
M184.858856,219.669708 
	C175.946564,219.966461 166.917145,219.878174 157.415863,219.808380 
	C157.809021,219.224930 158.665527,218.115189 159.540436,218.100464 
	C167.288071,217.970245 175.039322,218.004288 182.788300,218.094635 
	C183.443985,218.102280 184.090805,218.870026 184.858856,219.669708 
z"/>
<path fill="#6D0000" opacity="1.000000" stroke="none" 
	d="
M270.260986,361.162476 
	C281.000183,360.873413 292.025574,360.893188 303.515076,360.962769 
	C302.250366,361.341309 300.519165,361.963409 298.792938,361.949982 
	C289.377014,361.876770 279.962280,361.647156 270.260986,361.162476 
z"/>
<path fill="#710000" opacity="1.000000" stroke="none" 
	d="
M200.337250,360.911591 
	C210.729858,360.634796 221.355347,360.710419 232.436523,360.713074 
	C232.552658,360.985535 232.210648,361.635071 231.873871,361.632355 
	C221.438980,361.548798 211.004578,361.401489 200.337250,360.911591 
z"/>
<path fill="#6C0000" opacity="1.000000" stroke="none" 
	d="
M86.362251,361.117767 
	C95.065109,360.814606 104.024757,360.834259 113.443710,360.816711 
	C112.886360,361.183899 111.866058,361.946320 110.853645,361.936005 
	C102.774605,361.853516 94.697052,361.624634 86.362251,361.117767 
z"/>
<path fill="#891817" opacity="1.000000" stroke="none" 
	d="
M129.960907,249.687271 
	C128.612396,247.313690 127.278236,244.547516 125.920319,241.413177 
	C127.256111,243.794907 128.615677,246.544800 129.960907,249.687271 
z"/>
<path fill="#841010" opacity="1.000000" stroke="none" 
	d="
M142.048279,333.292755 
	C143.401749,335.666901 144.738586,338.435760 146.108948,341.572449 
	C144.772186,339.189362 143.401932,336.438416 142.048279,333.292755 
z"/>
<path fill="#891817" opacity="1.000000" stroke="none" 
	d="
M134.457275,259.964111 
	C133.193115,257.810333 132.069946,255.297867 130.906387,252.423553 
	C132.110092,254.576294 133.354172,257.090851 134.457275,259.964111 
z"/>
<path fill="#841010" opacity="1.000000" stroke="none" 
	d="
M129.230957,305.083221 
	C130.314957,306.715271 131.323669,308.736511 132.450348,311.080322 
	C131.430771,309.426086 130.293213,307.449249 129.230957,305.083221 
z"/>
<path fill="#891817" opacity="1.000000" stroke="none" 
	d="
M124.851089,238.169083 
	C123.776016,236.453568 122.739281,234.327744 121.584984,231.868256 
	C122.608093,233.609329 123.748764,235.684036 124.851089,238.169083 
z"/>
<path fill="#841010" opacity="1.000000" stroke="none" 
	d="
M123.206276,292.102875 
	C124.291649,293.736481 125.310371,295.758728 126.446152,298.105591 
	C125.422020,296.450623 124.280823,294.471100 123.206276,292.102875 
z"/>
<path fill="#891817" opacity="1.000000" stroke="none" 
	d="
M148.792999,290.881317 
	C147.720444,289.227295 146.705917,287.186493 145.586975,284.810852 
	C146.605392,286.482208 147.728210,288.488373 148.792999,290.881317 
z"/>
<path fill="#841010" opacity="1.000000" stroke="none" 
	d="
M148.121719,346.859436 
	C149.201675,348.616943 150.251511,350.783234 151.396683,353.302063 
	C150.358536,351.525818 149.225067,349.397003 148.121719,346.859436 
z"/>
<path fill="#891817" opacity="1.000000" stroke="none" 
	d="
M143.732788,279.929230 
	C142.838943,278.752869 141.988342,277.208862 141.122467,275.324799 
	C141.996796,276.510345 142.886398,278.035980 143.732788,279.929230 
z"/>
<path fill="#841010" opacity="1.000000" stroke="none" 
	d="
M151.338745,354.002899 
	C151.985092,354.870605 152.516022,356.102814 153.054672,357.677124 
	C152.449356,356.801971 151.836334,355.584686 151.338745,354.002899 
z"/>
<path fill="#841010" opacity="1.000000" stroke="none" 
	d="
M139.268204,327.040833 
	C139.935059,327.862091 140.512512,329.053406 141.134369,330.582031 
	C140.512131,329.749847 139.845459,328.580353 139.268204,327.040833 
z"/>
<path fill="#891817" opacity="1.000000" stroke="none" 
	d="
M138.675888,268.974731 
	C138.022629,268.148895 137.440155,266.969238 136.809540,265.454315 
	C137.423172,266.286316 138.084930,267.453644 138.675888,268.974731 
z"/>
<path fill="#891817" opacity="1.000000" stroke="none" 
	d="
M140.922272,273.869080 
	C140.492111,273.516449 140.078766,272.797333 139.566544,271.771484 
	C139.958130,272.144043 140.448624,272.823334 140.922272,273.869080 
z"/>
<path fill="#841010" opacity="1.000000" stroke="none" 
	d="
M137.101501,322.194702 
	C137.525818,322.533783 137.926041,323.236084 138.440796,324.233643 
	C138.062683,323.871918 137.570038,323.214905 137.101501,322.194702 
z"/>
<path fill="#891817" opacity="1.000000" stroke="none" 
	d="
M135.914642,262.784607 
	C135.510605,262.477112 135.123535,261.816467 134.600311,260.884521 
	C134.953308,261.219330 135.442459,261.825378 135.914642,262.784607 
z"/>
<path fill="#891817" opacity="1.000000" stroke="none" 
	d="
M119.781578,226.933167 
	C119.460449,226.743118 119.170441,226.229599 118.840988,225.404572 
	C119.138596,225.598602 119.475647,226.104141 119.781578,226.933167 
z"/>
<path fill="#841010" opacity="1.000000" stroke="none" 
	d="
M147.050934,344.251617 
	C147.349091,344.441498 147.673050,344.930939 147.997009,345.721130 
	C147.690262,345.531616 147.383514,345.041412 147.050934,344.251617 
z"/>
<path fill="#841010" opacity="1.000000" stroke="none" 
	d="
M146.103790,342.165222 
	C146.408020,342.360748 146.717178,342.867065 147.032318,343.680817 
	C146.728455,343.484192 146.418594,342.980072 146.103790,342.165222 
z"/>
<path fill="#841010" opacity="1.000000" stroke="none" 
	d="
M141.117523,331.153412 
	C141.422684,331.338501 141.729019,331.839050 142.072372,332.653534 
	C141.779160,332.467926 141.448914,331.968414 141.117523,331.153412 
z"/>
<path fill="#841010" opacity="1.000000" stroke="none" 
	d="
M138.481079,324.955627 
	C138.834686,325.147858 139.070923,325.662598 139.367950,326.458008 
	C139.073730,326.251831 138.718704,325.764984 138.481079,324.955627 
z"/>
<path fill="#841010" opacity="1.000000" stroke="none" 
	d="
M136.160507,320.110535 
	C136.485718,320.290741 136.799133,320.793243 137.150818,321.609436 
	C136.842285,321.426331 136.495499,320.929596 136.160507,320.110535 
z"/>
<path fill="#841010" opacity="1.000000" stroke="none" 
	d="
M135.222076,318.057556 
	C135.553452,318.239929 135.853256,318.750763 136.203583,319.573120 
	C135.899551,319.385071 135.545029,318.885529 135.222076,318.057556 
z"/>
<path fill="#891817" opacity="1.000000" stroke="none" 
	d="
M114.327026,219.822418 
	C114.476067,219.479950 114.951530,219.231781 115.702545,218.960770 
	C115.986000,219.110504 115.993904,219.283081 116.006317,219.714767 
	C115.558365,219.954834 115.105911,219.935776 114.327026,219.822418 
z"/>
<path fill="#841010" opacity="1.000000" stroke="none" 
	d="
M134.287445,316.013306 
	C134.630142,316.192444 134.920059,316.704102 135.276428,317.515991 
	C134.973480,317.326080 134.604095,316.835968 134.287445,316.013306 
z"/>
<path fill="#891817" opacity="1.000000" stroke="none" 
	d="
M144.645966,282.007751 
	C144.301727,281.830627 144.027161,281.326385 143.691238,280.531494 
	C143.991806,280.720795 144.353729,281.200714 144.645966,282.007751 
z"/>
<path fill="#891817" opacity="1.000000" stroke="none" 
	d="
M118.866486,224.857117 
	C118.556839,224.671051 118.251549,224.170181 117.916771,223.354736 
	C118.215134,223.540878 118.542984,224.041611 118.866486,224.857117 
z"/>
<path fill="#891817" opacity="1.000000" stroke="none" 
	d="
M120.649826,229.007202 
	C120.311508,228.814423 120.046021,228.294434 119.730942,227.476501 
	C120.028450,227.679031 120.375549,228.179520 120.649826,229.007202 
z"/>
<path fill="#891817" opacity="1.000000" stroke="none" 
	d="
M121.488754,231.029083 
	C121.138512,230.848679 120.906219,230.354691 120.616165,229.590302 
	C120.907837,229.785095 121.257278,230.250305 121.488754,231.029083 
z"/>
<path fill="#891817" opacity="1.000000" stroke="none" 
	d="
M125.921204,240.801300 
	C125.611084,240.604187 125.297905,240.098694 124.982338,239.286133 
	C125.292679,239.483688 125.605408,239.988312 125.921204,240.801300 
z"/>
<path fill="#891817" opacity="1.000000" stroke="none" 
	d="
M130.903503,251.816574 
	C130.596512,251.634384 130.283005,251.142700 129.943375,250.339661 
	C130.243835,250.521210 130.570435,251.014145 130.903503,251.816574 
z"/>
<path fill="#891817" opacity="1.000000" stroke="none" 
	d="
M136.841248,264.881165 
	C136.526825,264.697662 136.222733,264.196075 135.882507,263.380219 
	C136.181442,263.564972 136.516510,264.064026 136.841248,264.881165 
z"/>
<path fill="#891817" opacity="1.000000" stroke="none" 
	d="
M139.517105,271.034607 
	C139.164490,270.853790 138.922241,270.355865 138.627533,269.581085 
	C138.925858,269.775330 139.276657,270.246429 139.517105,271.034607 
z"/>
<path fill="#891817" opacity="1.000000" stroke="none" 
	d="
M117.917931,222.799057 
	C117.610191,222.616455 117.292366,222.126785 116.957077,221.326492 
	C117.262360,221.507919 117.585106,221.999954 117.917931,222.799057 
z"/>
<path fill="#841010" opacity="1.000000" stroke="none" 
	d="
M133.400452,313.957825 
	C133.755569,314.141510 134.019577,314.656586 134.348724,315.460938 
	C134.045700,315.263214 133.677536,314.776215 133.400452,313.957825 
z"/>
<path fill="#891817" opacity="1.000000" stroke="none" 
	d="
M145.522858,284.036407 
	C145.167557,283.861084 144.920090,283.367584 144.617126,282.598755 
	C144.917984,282.788361 145.274323,283.253296 145.522858,284.036407 
z"/>
<path fill="#841010" opacity="1.000000" stroke="none" 
	d="
M121.392570,287.961853 
	C121.744972,288.147736 122.008125,288.664917 122.336563,289.472565 
	C122.035667,289.273071 121.669495,288.783112 121.392570,287.961853 
z"/>
<path fill="#841010" opacity="1.000000" stroke="none" 
	d="
M122.275543,290.021088 
	C122.622574,290.192444 122.921974,290.696503 123.290619,291.499451 
	C122.982552,291.316833 122.605225,290.835297 122.275543,290.021088 
z"/>
<path fill="#891817" opacity="1.000000" stroke="none" 
	d="
M149.728683,292.963318 
	C149.387726,292.794525 149.087280,292.298645 148.727737,291.503387 
	C149.035507,291.681427 149.402344,292.158844 149.728683,292.963318 
z"/>
<path fill="#891817" opacity="1.000000" stroke="none" 
	d="
M150.635376,295.011902 
	C150.293015,294.831390 150.024445,294.324310 149.694489,293.527527 
	C149.991776,293.720306 150.350464,294.202850 150.635376,295.011902 
z"/>
<path fill="#891817" opacity="1.000000" stroke="none" 
	d="
M151.512207,297.036591 
	C151.154770,296.862976 150.908371,296.372467 150.607986,295.608215 
	C150.910431,295.796234 151.266846,296.257965 151.512207,297.036591 
z"/>
<path fill="#841010" opacity="1.000000" stroke="none" 
	d="
M126.528793,298.955566 
	C126.896370,299.122742 127.136642,299.606354 127.442902,300.354736 
	C127.139755,300.170319 126.770630,299.721161 126.528793,298.955566 
z"/>
<path fill="#841010" opacity="1.000000" stroke="none" 
	d="
M128.156235,302.761780 
	C128.513489,302.963715 128.866043,303.541046 129.311447,304.457153 
	C128.986710,304.243042 128.569122,303.690125 128.156235,302.761780 
z"/>
<path fill="#841010" opacity="1.000000" stroke="none" 
	d="
M132.543793,311.958893 
	C132.914017,312.128784 133.151947,312.612854 133.447845,313.363098 
	C133.141052,313.177246 132.776276,312.725128 132.543793,311.958893 
z"/>
<path fill="#841010" opacity="1.000000" stroke="none" 
	d="
M153.225815,358.634216 
	C153.433762,358.638184 153.711166,358.968781 154.071655,359.621521 
	C153.868256,359.616058 153.581772,359.288483 153.225815,358.634216 
z"/>
<path fill="#970E04" opacity="1.000000" stroke="none" 
	d="
M45.325783,417.894684 
	C45.119614,417.875641 45.030418,417.452118 45.038826,417.236084 
	C45.316883,417.127258 45.544235,417.292542 45.836975,417.697876 
	C45.944653,417.879761 45.531956,417.913727 45.325783,417.894684 
z"/>
<path fill="#841010" opacity="1.000000" stroke="none" 
	d="
M127.447800,300.871338 
	C127.664772,300.891083 127.855301,301.182953 128.038422,301.744385 
	C127.827789,301.723816 127.624573,301.433624 127.447800,300.871338 
z"/>
</svg>