<svg version="1.1" id="Layer_1" xmlns="http://www.w3.org/2000/svg" xmlns:xlink="http://www.w3.org/1999/xlink" x="0px" y="0px"
	 width="100%" viewBox="0 0 239 50" enable-background="new 0 0 239 50" xml:space="preserve">
<path fill="#000000" opacity="1.000000" stroke="none" 
	d="
M240.000000,42.000000 
	C240.000000,44.994545 240.000000,47.989090 240.000000,51.000000 
	C162.979111,51.000000 85.958214,51.000000 8.116489,50.742527 
	C12.887178,47.296619 18.478693,44.108181 24.031214,41.335751 
	C24.767172,42.825325 25.492359,44.782505 26.325130,44.829403 
	C31.832216,45.139553 37.446247,45.653870 42.863487,44.914696 
	C49.382156,44.025230 50.758846,40.763054 47.412907,35.034779 
	C45.068047,31.020361 41.904839,27.483952 38.462349,22.869892 
	C43.400337,22.231047 47.725925,21.671429 52.698231,21.028143 
	C48.592121,15.870641 42.597820,14.681848 36.327873,16.885376 
	C30.350586,18.986053 29.000397,23.428425 32.962189,28.301088 
	C34.320831,29.972101 36.104973,31.301313 37.431885,32.992859 
	C38.934494,34.908386 40.141846,37.055519 41.477581,39.101948 
	C41.189804,39.750851 40.902027,40.399750 40.614250,41.048649 
	C35.056698,41.048649 29.499147,41.048649 24.058815,40.722458 
	C27.719553,36.845432 31.614796,32.864407 29.475323,27.679237 
	C28.508762,25.336706 24.188721,24.377869 22.556301,23.452406 
	C26.404057,20.298767 31.442677,16.294334 36.333935,12.117343 
	C39.746490,9.203124 40.347492,5.900046 37.009586,2.383713 
	C36.777763,2.139502 36.992779,1.471126 37.000000,1.000000 
	C104.666687,1.000000 172.333374,1.000000 240.000000,1.000000 
	C240.000000,8.424306 240.000000,15.743416 239.543289,23.531445 
	C236.935669,24.000570 234.716629,23.671232 232.653885,24.097799 
	C230.759628,24.489525 227.814209,25.391962 227.510254,26.612064 
	C227.013535,28.606005 227.855743,31.274303 228.918900,33.231216 
	C230.300171,35.773682 232.450531,37.898312 234.648529,40.682446 
	C225.124680,41.360943 225.124680,41.360943 225.742188,44.742996 
	C232.873718,45.296169 232.873718,45.296169 240.000000,42.000000 
M170.989929,28.189779 
	C170.741074,26.831682 170.492218,25.473585 170.243347,24.115488 
	C169.057663,24.979898 167.395172,25.591383 166.776978,26.756819 
	C165.021072,30.067099 163.691574,33.603558 162.297119,36.813999 
	C160.880112,34.380730 159.649780,32.268028 158.419464,30.155319 
	C155.896591,32.258678 153.373703,34.362038 150.791733,36.514671 
	C151.066055,34.172550 151.293671,31.422995 151.730286,28.707031 
	C152.269043,25.355608 150.971725,24.121391 147.351776,24.641273 
	C147.351776,31.385136 147.351776,38.109455 147.351776,44.516521 
	C154.652954,47.430084 153.501312,39.007423 157.489029,37.477818 
	C158.136063,40.031368 158.753510,42.468174 159.296219,44.610001 
	C162.796219,45.859795 164.119522,44.223080 165.156174,41.586815 
	C166.562164,38.011303 168.282745,34.559502 169.962708,31.872417 
	C169.055984,36.272823 167.476440,40.819374 172.351166,44.070629 
	C176.236862,46.662224 181.056213,47.575813 184.257935,44.572525 
	C187.275711,41.741772 189.824020,37.076286 190.145477,33.024849 
	C190.602905,27.259741 186.537735,22.559673 181.262070,24.110891 
	C177.689835,25.161245 174.430313,27.275084 170.989929,28.189779 
M76.747711,37.407852 
	C76.975037,41.570747 77.693100,45.702496 82.892921,45.872097 
	C86.245132,45.981441 90.129913,45.803097 92.866776,44.200718 
	C95.571831,42.616959 97.133896,39.080982 98.954926,36.716209 
	C98.683899,38.860687 98.327629,41.679707 97.909035,44.991806 
	C104.894234,44.991806 111.356850,45.054119 117.815651,44.924927 
	C118.789345,44.905445 120.439049,44.155636 120.600906,43.467316 
	C122.070679,37.217228 123.279282,30.905725 124.579292,24.538780 
	C118.043877,23.755669 118.004730,23.747677 116.935280,28.986103 
	C116.109459,33.031181 115.397667,37.099541 114.757698,40.505470 
	C111.449104,40.222889 108.451134,39.966839 105.703865,39.732201 
	C106.143860,36.517792 106.490433,33.433231 107.000114,30.375860 
	C108.112984,23.700163 108.146851,23.705809 101.270760,24.361141 
	C100.723465,27.164438 100.157997,30.060877 99.540062,33.226032 
	C96.974373,23.845800 88.538696,20.430128 81.189819,26.247545 
	C78.517181,28.363222 77.675804,32.792236 75.384811,35.850906 
	C73.364372,34.115635 71.343925,32.380363 68.875870,30.260651 
	C77.233101,29.701515 77.391663,29.559288 76.250954,24.000858 
	C73.005936,24.000858 69.615326,23.562811 66.417587,24.159071 
	C64.378693,24.539248 61.969738,26.071125 60.963806,27.804527 
	C60.235336,29.059813 61.088455,31.764961 62.039261,33.338299 
	C63.473381,35.711399 65.608040,37.661144 67.459442,39.807636 
	C64.956512,39.928772 62.215103,40.061443 59.274097,40.203777 
	C59.274097,41.868298 59.274097,43.248161 59.274097,44.999897 
	C62.325191,44.999897 65.124886,45.020138 67.924194,44.995735 
	C73.988991,44.942863 75.647141,43.320282 76.747711,37.407852 
M145.988586,34.137112 
	C146.449066,24.631023 143.648239,24.851530 139.103500,24.152893 
	C134.917572,23.509413 130.554825,24.016031 126.846138,24.016031 
	C125.969887,31.166201 125.155533,37.811203 124.341431,44.454212 
	C136.255432,45.863808 143.145828,45.802704 145.988586,34.137112 
M194.926331,42.102890 
	C195.059341,40.401871 195.192368,38.700848 195.347504,36.716778 
	C200.442917,37.850189 198.929413,46.745266 206.009460,44.522625 
	C205.828171,43.562275 205.946854,42.541355 205.492828,42.054508 
	C202.630539,38.985210 201.735535,36.464546 206.279465,33.900593 
	C207.535248,33.192009 208.601669,30.560030 208.342377,29.053717 
	C207.583099,24.643015 197.299713,21.671822 193.950867,24.675570 
	C193.504562,25.075897 193.177643,25.766228 193.075928,26.369543 
	C192.058197,32.407204 191.099228,38.454773 190.123718,44.499550 
	C190.446426,44.819633 190.769119,45.139717 191.091827,45.459801 
	C192.261505,44.599842 193.431168,43.739880 194.926331,42.102890 
M219.946594,44.939011 
	C223.224503,45.185837 224.115158,44.126591 221.868423,41.392689 
	C221.449463,40.882889 220.944931,40.443569 220.481583,39.970062 
	C215.897751,35.285717 215.886368,35.273232 220.694382,30.820642 
	C222.567490,29.086000 224.505325,27.421236 226.740234,25.434332 
	C220.562851,21.558325 219.213821,28.338198 216.286072,28.797100 
	C215.416275,26.955944 214.734833,25.513512 214.053406,24.071075 
	C213.036285,25.444838 211.433426,26.693132 211.107452,28.214945 
	C209.940918,33.660736 209.207138,39.199226 208.314774,44.671486 
	C213.377518,46.224319 212.815155,42.098370 213.621658,38.092411 
	C216.028854,40.921307 217.631073,42.804195 219.946594,44.939011 
z"/>
<path fill="#000000" opacity="1.000000" stroke="none" 
	d="
M1.000000,44.000000 
	C1.000000,29.775061 1.000000,15.550120 1.000000,1.000000 
	C6.014520,1.000000 11.036062,1.000000 16.886503,1.292931 
	C16.230017,5.205940 18.914728,4.765525 21.006132,5.041498 
	C24.311468,5.477657 27.601799,6.027515 30.898481,6.529254 
	C31.110716,7.060496 31.322948,7.591739 31.535183,8.122981 
	C28.022610,11.736509 24.122015,15.056640 21.105865,19.045532 
	C18.048929,23.088367 14.150476,23.786251 9.660242,24.136589 
	C8.267075,24.245287 6.979278,25.704487 5.165658,26.845989 
	C9.154231,27.965191 11.847343,28.720884 14.561234,29.453396 
	C14.582011,29.430216 14.626711,29.386879 14.306030,29.233185 
	C12.141983,30.722179 10.075343,32.177574 8.505139,34.049408 
	C5.838688,37.228081 3.485085,40.669186 1.000000,44.000000 
z"/>
<path fill="#EE2722" opacity="1.000000" stroke="none" 
	d="
M1.000000,44.497906 
	C3.485085,40.669186 5.838688,37.228081 8.505139,34.049408 
	C10.075343,32.177574 12.141983,30.722179 14.463326,29.551292 
	C13.392159,34.184998 11.843018,38.346901 10.092940,43.048637 
	C15.211584,39.593983 21.215199,37.902351 22.843924,29.805784 
	C19.880718,29.688303 17.210587,29.582441 14.540457,29.476578 
	C11.847343,28.720884 9.154231,27.965191 5.165658,26.845989 
	C6.979278,25.704487 8.267075,24.245287 9.660242,24.136589 
	C14.150476,23.786251 18.048929,23.088367 21.105865,19.045532 
	C24.122015,15.056640 28.022610,11.736509 31.535183,8.122981 
	C31.322948,7.591739 31.110716,7.060496 30.898481,6.529254 
	C27.601799,6.027515 24.311468,5.477657 21.006132,5.041498 
	C18.914728,4.765525 16.230017,5.205940 17.357700,1.292931 
	C23.354399,1.000000 29.708796,1.000000 36.531597,1.000000 
	C36.992779,1.471126 36.777763,2.139502 37.009586,2.383713 
	C40.347492,5.900046 39.746490,9.203124 36.333935,12.117343 
	C31.442677,16.294334 26.404057,20.298767 22.556301,23.452406 
	C24.188721,24.377869 28.508762,25.336706 29.475323,27.679237 
	C31.614796,32.864407 27.719553,36.845432 24.091513,40.690777 
	C24.006994,40.985287 24.070206,40.919743 24.070206,40.919743 
	C18.478693,44.108181 12.887178,47.296619 7.647832,50.742527 
	C5.752362,51.000000 3.504725,51.000000 1.000000,51.000000 
	C1.000000,49.001858 1.000000,46.998837 1.000000,44.497906 
z"/>
<path fill="#EE2722" opacity="1.000000" stroke="none" 
	d="
M240.000000,41.625000 
	C232.873718,45.296169 232.873718,45.296169 225.742188,44.742996 
	C225.124680,41.360943 225.124680,41.360943 234.648529,40.682446 
	C232.450531,37.898312 230.300171,35.773682 228.918900,33.231216 
	C227.855743,31.274303 227.013535,28.606005 227.510254,26.612064 
	C227.814209,25.391962 230.759628,24.489525 232.653885,24.097799 
	C234.716629,23.671232 236.935669,24.000570 239.543289,24.000183 
	C240.000000,25.066669 240.000000,26.133339 239.556213,27.599699 
	C236.446945,27.999390 233.781479,27.999390 230.402115,27.999390 
	C233.386810,31.869473 235.607971,34.829704 237.936340,37.703049 
	C238.420456,38.300491 239.301743,38.576080 240.000000,39.000000 
	C240.000000,39.750000 240.000000,40.500000 240.000000,41.625000 
z"/>
<path fill="#000000" opacity="1.000000" stroke="none" 
	d="
M240.000000,38.541931 
	C239.301743,38.576080 238.420456,38.300491 237.936340,37.703049 
	C235.607971,34.829704 233.386810,31.869473 230.402115,27.999390 
	C233.781479,27.999390 236.446945,27.999390 239.556213,27.999695 
	C240.000000,31.361288 240.000000,34.722576 240.000000,38.541931 
z"/>
<path fill="#ED2722" opacity="1.000000" stroke="none" 
	d="
M75.998909,36.165779 
	C77.675804,32.792236 78.517181,28.363222 81.189819,26.247545 
	C88.538696,20.430128 96.974373,23.845800 99.540062,33.226032 
	C100.157997,30.060877 100.723465,27.164438 101.270760,24.361141 
	C108.146851,23.705809 108.112984,23.700163 107.000114,30.375860 
	C106.490433,33.433231 106.143860,36.517792 105.703865,39.732201 
	C108.451134,39.966839 111.449104,40.222889 114.757698,40.505470 
	C115.397667,37.099541 116.109459,33.031181 116.935280,28.986103 
	C118.004730,23.747677 118.043877,23.755669 124.579292,24.538780 
	C123.279282,30.905725 122.070679,37.217228 120.600906,43.467316 
	C120.439049,44.155636 118.789345,44.905445 117.815651,44.924927 
	C111.356850,45.054119 104.894234,44.991806 97.909035,44.991806 
	C98.327629,41.679707 98.683899,38.860687 98.954926,36.716209 
	C97.133896,39.080982 95.571831,42.616959 92.866776,44.200718 
	C90.129913,45.803097 86.245132,45.981441 82.892921,45.872097 
	C77.693100,45.702496 76.975037,41.570747 76.383667,37.021095 
	C76.019623,36.634335 75.998909,36.165779 75.998909,36.165779 
M88.763779,40.680748 
	C89.583824,39.866497 90.939522,39.155876 91.120964,38.218071 
	C91.615532,35.661800 91.855759,32.987747 91.623116,30.412176 
	C91.571144,29.836832 89.063881,28.897268 87.868919,29.116556 
	C83.585838,29.902544 83.188454,33.329632 82.970619,36.950630 
	C82.731400,40.927387 85.006035,41.268845 88.763779,40.680748 
z"/>
<path fill="#ED2722" opacity="1.000000" stroke="none" 
	d="
M23.974297,41.016968 
	C29.499147,41.048649 35.056698,41.048649 40.614250,41.048649 
	C40.902027,40.399750 41.189804,39.750851 41.477581,39.101948 
	C40.141846,37.055519 38.934494,34.908386 37.431885,32.992859 
	C36.104973,31.301313 34.320831,29.972101 32.962189,28.301088 
	C29.000397,23.428425 30.350586,18.986053 36.327873,16.885376 
	C42.597820,14.681848 48.592121,15.870641 52.698231,21.028143 
	C47.725925,21.671429 43.400337,22.231047 38.462349,22.869892 
	C41.904839,27.483952 45.068047,31.020361 47.412907,35.034779 
	C50.758846,40.763054 49.382156,44.025230 42.863487,44.914696 
	C37.446247,45.653870 31.832216,45.139553 26.325130,44.829403 
	C25.492359,44.782505 24.767172,42.825325 24.031212,41.335751 
	C24.070206,40.919743 24.006994,40.985287 23.974297,41.016968 
z"/>
<path fill="#EE2722" opacity="1.000000" stroke="none" 
	d="
M145.959412,34.556118 
	C143.145828,45.802704 136.255432,45.863808 124.341431,44.454212 
	C125.155533,37.811203 125.969887,31.166201 126.846138,24.016031 
	C130.554825,24.016031 134.917572,23.509413 139.103500,24.152893 
	C143.648239,24.851530 146.449066,24.631023 145.959412,34.556118 
M136.296524,38.904282 
	C138.646484,36.598640 140.706558,33.874252 139.030624,30.640171 
	C138.376923,29.378698 135.662109,29.185303 133.379715,28.311562 
	C132.526978,32.632675 131.851608,36.054981 131.023376,40.251938 
	C132.872101,39.776257 134.194534,39.435997 136.296524,38.904282 
z"/>
<path fill="#EE2621" opacity="1.000000" stroke="none" 
	d="
M169.868393,31.054638 
	C168.282745,34.559502 166.562164,38.011303 165.156174,41.586815 
	C164.119522,44.223080 162.796219,45.859795 159.296219,44.610001 
	C158.753510,42.468174 158.136063,40.031368 157.489029,37.477818 
	C153.501312,39.007423 154.652954,47.430084 147.351776,44.516521 
	C147.351776,38.109455 147.351776,31.385136 147.351776,24.641273 
	C150.971725,24.121391 152.269043,25.355608 151.730286,28.707031 
	C151.293671,31.422995 151.066055,34.172550 150.791733,36.514671 
	C153.373703,34.362038 155.896591,32.258678 158.419464,30.155321 
	C159.649780,32.268028 160.880112,34.380730 162.297119,36.813999 
	C163.691574,33.603558 165.021072,30.067099 166.776978,26.756819 
	C167.395172,25.591383 169.057663,24.979898 170.243347,24.115488 
	C170.492218,25.473585 170.741074,26.831682 170.904175,28.839088 
	C170.501740,30.010477 170.185074,30.532558 169.868393,31.054638 
z"/>
<path fill="#EE2722" opacity="1.000000" stroke="none" 
	d="
M75.691864,36.008343 
	C75.998909,36.165779 76.019623,36.634335 76.030609,36.868561 
	C75.647141,43.320282 73.988991,44.942863 67.924194,44.995735 
	C65.124886,45.020138 62.325191,44.999897 59.274097,44.999897 
	C59.274097,43.248161 59.274097,41.868298 59.274097,40.203777 
	C62.215103,40.061443 64.956512,39.928772 67.459442,39.807636 
	C65.608040,37.661144 63.473381,35.711399 62.039261,33.338299 
	C61.088455,31.764961 60.235336,29.059813 60.963806,27.804527 
	C61.969738,26.071125 64.378693,24.539248 66.417587,24.159071 
	C69.615326,23.562811 73.005936,24.000858 76.250954,24.000858 
	C77.391663,29.559288 77.233101,29.701515 68.875870,30.260651 
	C71.343925,32.380363 73.364372,34.115635 75.691864,36.008343 
z"/>
<path fill="#ED2622" opacity="1.000000" stroke="none" 
	d="
M169.915558,31.463528 
	C170.185074,30.532558 170.501740,30.010477 170.924667,29.200832 
	C174.430313,27.275084 177.689835,25.161245 181.262070,24.110891 
	C186.537735,22.559673 190.602905,27.259741 190.145477,33.024849 
	C189.824020,37.076286 187.275711,41.741772 184.257935,44.572525 
	C181.056213,47.575813 176.236862,46.662224 172.351166,44.070629 
	C167.476440,40.819374 169.055984,36.272823 169.915558,31.463528 
M178.567627,28.861940 
	C177.046387,32.021568 175.377396,35.124538 174.126236,38.387722 
	C173.870193,39.055523 175.166458,41.158607 175.771408,41.168850 
	C178.200378,41.209969 181.466736,41.551060 182.890488,40.184292 
	C185.364792,37.809010 187.182693,34.372887 185.431259,30.452774 
	C184.098236,27.469151 181.711563,27.710836 178.567627,28.861940 
z"/>
<path fill="#ED2722" opacity="1.000000" stroke="none" 
	d="
M194.763580,42.491402 
	C193.431168,43.739880 192.261505,44.599842 191.091827,45.459801 
	C190.769119,45.139717 190.446426,44.819633 190.123718,44.499550 
	C191.099228,38.454773 192.058197,32.407204 193.075928,26.369543 
	C193.177643,25.766228 193.504562,25.075897 193.950867,24.675570 
	C197.299713,21.671822 207.583099,24.643015 208.342377,29.053717 
	C208.601669,30.560030 207.535248,33.192009 206.279465,33.900593 
	C201.735535,36.464546 202.630539,38.985210 205.492828,42.054508 
	C205.946854,42.541355 205.828171,43.562275 206.009460,44.522625 
	C198.929413,46.745266 200.442917,37.850189 195.347504,36.716778 
	C195.192368,38.700848 195.059341,40.401871 194.763580,42.491402 
M197.843536,28.103895 
	C197.201599,29.580219 196.559662,31.056541 195.917725,32.532864 
	C196.287949,32.854885 196.658173,33.176907 197.028397,33.498928 
	C199.283157,32.294136 201.537933,31.089344 203.792694,29.884554 
	C203.635483,29.341307 203.478287,28.798058 203.321075,28.254810 
	C201.763107,28.176516 200.205124,28.098221 197.843536,28.103895 
z"/>
<path fill="#ED2622" opacity="1.000000" stroke="none" 
	d="
M219.589935,44.813049 
	C217.631073,42.804195 216.028854,40.921307 213.621658,38.092411 
	C212.815155,42.098370 213.377518,46.224319 208.314774,44.671486 
	C209.207138,39.199226 209.940918,33.660736 211.107452,28.214945 
	C211.433426,26.693132 213.036285,25.444838 214.053406,24.071075 
	C214.734833,25.513512 215.416275,26.955944 216.286072,28.797100 
	C219.213821,28.338198 220.562851,21.558325 226.740234,25.434332 
	C224.505325,27.421236 222.567490,29.086000 220.694382,30.820642 
	C215.886368,35.273232 215.897751,35.285717 220.481583,39.970062 
	C220.944931,40.443569 221.449463,40.882889 221.868423,41.392689 
	C224.115158,44.126591 223.224503,45.185837 219.589935,44.813049 
z"/>
<path fill="#000000" opacity="1.000000" stroke="none" 
	d="
M14.561234,29.453396 
	C17.210587,29.582441 19.880718,29.688303 22.843924,29.805784 
	C21.215199,37.902351 15.211584,39.593983 10.092940,43.048637 
	C11.843018,38.346901 13.392159,34.184998 14.784006,29.704987 
	C14.626711,29.386879 14.582011,29.430216 14.561234,29.453396 
z"/>
<path fill="#000000" opacity="1.000000" stroke="none" 
	d="
M88.378067,40.810646 
	C85.006035,41.268845 82.731400,40.927387 82.970619,36.950630 
	C83.188454,33.329632 83.585838,29.902544 87.868919,29.116556 
	C89.063881,28.897268 91.571144,29.836832 91.623116,30.412176 
	C91.855759,32.987747 91.615532,35.661800 91.120964,38.218071 
	C90.939522,39.155876 89.583824,39.866497 88.378067,40.810646 
z"/>
<path fill="#000000" opacity="1.000000" stroke="none" 
	d="
M135.906738,39.000008 
	C134.194534,39.435997 132.872101,39.776257 131.023376,40.251938 
	C131.851608,36.054981 132.526978,32.632675 133.379715,28.311562 
	C135.662109,29.185303 138.376923,29.378698 139.030624,30.640171 
	C140.706558,33.874252 138.646484,36.598640 135.906738,39.000008 
z"/>
<path fill="#000000" opacity="1.000000" stroke="none" 
	d="
M178.872131,28.605892 
	C181.711563,27.710836 184.098236,27.469151 185.431259,30.452774 
	C187.182693,34.372887 185.364792,37.809010 182.890488,40.184292 
	C181.466736,41.551060 178.200378,41.209969 175.771408,41.168850 
	C175.166458,41.158607 173.870193,39.055523 174.126236,38.387722 
	C175.377396,35.124538 177.046387,32.021568 178.872131,28.605892 
z"/>
<path fill="#000000" opacity="1.000000" stroke="none" 
	d="
M198.245346,28.061913 
	C200.205124,28.098221 201.763107,28.176516 203.321075,28.254810 
	C203.478287,28.798058 203.635483,29.341307 203.792694,29.884554 
	C201.537933,31.089344 199.283157,32.294136 197.028397,33.498928 
	C196.658173,33.176907 196.287949,32.854885 195.917725,32.532864 
	C196.559662,31.056541 197.201599,29.580219 198.245346,28.061913 
z"/>
</svg>